RobotoSerifTextWide-Super 04h.ufo
<glyph name="A" format="2">
  <advance width="890"/>
  <unicode hex="0041"/>
  <anchor x="420" y="721.0" name="top"/>
  <anchor x="663" y="0.0" name="right"/>
  <anchor x="420" y="0.0" name="bottom"/>
  <outline>
    <contour>
      <point x="187" y="309" type="line"/>
      <point x="187" y="224" type="line"/>
      <point x="495" y="224" type="line"/>
      <point x="495" y="309" type="line"/>
    </contour>
    <contour>
      <point x="306" y="642" type="line"/>
      <point x="507" y="86" type="line"/>
      <point x="507" y="79"/>
      <point x="480" y="76"/>
      <point x="453" y="76" type="curve" smooth="yes"/>
      <point x="435" y="76" type="line"/>
      <point x="435" y="0" type="line"/>
      <point x="876" y="0" type="line"/>
      <point x="876" y="76" type="line"/>
      <point x="871" y="76" type="line"/>
      <point x="847" y="76"/>
      <point x="833" y="81"/>
      <point x="824" y="104" type="curve" smooth="yes"/>
      <point x="594" y="710" type="line"/>
      <point x="294" y="710" type="line"/>
      <point x="70" y="119" type="line" smooth="yes"/>
      <point x="57" y="85"/>
      <point x="45" y="76"/>
      <point x="20" y="76" type="curve"/>
      <point x="14" y="76" type="line"/>
      <point x="14" y="0" type="line"/>
      <point x="249" y="0" type="line"/>
      <point x="249" y="76" type="line"/>
      <point x="235" y="76" type="line" smooth="yes"/>
      <point x="209" y="76"/>
      <point x="184" y="83"/>
      <point x="184" y="94" type="curve"/>
      <point x="356" y="585" type="line"/>
    </contour>
  </outline>
</glyph>
<glyph name="acute" format="2">
  <advance width="588"/>
  <unicode hex="00B4"/>
  <anchor x="250" y="527.0" name="_top"/>
  <outline>
    <contour>
      <point x="254" y="682" type="curve" smooth="yes"/>
      <point x="211" y="585" type="line"/>
      <point x="211" y="555" type="line"/>
      <point x="295" y="555" type="line"/>
      <point x="379" y="606" type="line" smooth="yes"/>
      <point x="434" y="639"/>
      <point x="460.0" y="672"/>
      <point x="460" y="711" type="curve" smooth="yes"/>
      <point x="460.0" y="751"/>
      <point x="427" y="784.0"/>
      <point x="373" y="784" type="curve" smooth="yes"/>
      <point x="307" y="784"/>
      <point x="282" y="745"/>
    </contour>
  </outline>
</glyph>
<glyph name="AE" format="2">
  <advance width="1192"/>
  <unicode hex="00C6"/>
  <anchor x="728" y="741.0" name="top"/>
  <outline>
    <contour>
      <point x="1163" y="232" type="line"/>
      <point x="1036" y="232" type="line"/>
      <point x="1026" y="144" type="line" smooth="yes"/>
      <point x="1020" y="93"/>
      <point x="995" y="86"/>
      <point x="894" y="86" type="curve" smooth="yes"/>
      <point x="807" y="86" type="line"/>
      <point x="807" y="624" type="line"/>
      <point x="896" y="624" type="line" smooth="yes"/>
      <point x="963" y="624"/>
      <point x="997" y="616"/>
      <point x="1000" y="576" type="curve"/>
      <point x="1006" y="503" type="line"/>
      <point x="1132" y="503" type="line"/>
      <point x="1132" y="710" type="line"/>
      <point x="296" y="710" type="line"/>
      <point x="296" y="634" type="line"/>
      <point x="314" y="634" type="line" smooth="yes"/>
      <point x="358.34375" y="634"/>
      <point x="380.0" y="622.0"/>
      <point x="380" y="607" type="curve"/>
      <point x="77" y="119" type="line" smooth="yes"/>
      <point x="58" y="88"/>
      <point x="43" y="76"/>
      <point x="22" y="76" type="curve" smooth="yes"/>
      <point x="10" y="76" type="line"/>
      <point x="10" y="0" type="line"/>
      <point x="251" y="0" type="line"/>
      <point x="251" y="76" type="line"/>
      <point x="237" y="76" type="line" smooth="yes"/>
      <point x="209" y="76"/>
      <point x="186" y="83"/>
      <point x="186" y="94" type="curve"/>
      <point x="498" y="605" type="line"/>
      <point x="498" y="112" type="line" smooth="yes"/>
      <point x="498" y="83"/>
      <point x="479" y="76"/>
      <point x="452" y="76" type="curve" smooth="yes"/>
      <point x="440" y="76" type="line"/>
      <point x="440" y="0" type="line"/>
      <point x="1163" y="0" type="line"/>
    </contour>
    <contour>
      <point x="222" y="224" type="line"/>
      <point x="520" y="224" type="line"/>
      <point x="520" y="309" type="line"/>
      <point x="277" y="309" type="line"/>
    </contour>
    <contour>
      <point x="775" y="401" type="curve"/>
      <point x="775" y="326" type="line"/>
      <point x="864" y="321"/>
      <point x="951" y="315"/>
      <point x="1034" y="308" type="curve"/>
      <point x="1034" y="419" type="line"/>
      <point x="948" y="411"/>
      <point x="861" y="405"/>
    </contour>
  </outline>
</glyph>
<glyph name="Ldot" format="2">
  <advance width="819"/>
  <unicode hex="013F"/>
  <outline>
    <contour>
      <point x="472" y="710" type="line"/>
      <point x="472" y="634" type="line"/>
      <point x="453" y="634" type="line" smooth="yes"/>
      <point x="421" y="634"/>
      <point x="398" y="627"/>
      <point x="398" y="598" type="curve" smooth="yes"/>
      <point x="398" y="86" type="line"/>
      <point x="473" y="86" type="line" smooth="yes"/>
      <point x="563" y="86"/>
      <point x="599" y="93"/>
      <point x="604" y="129" type="curve" smooth="yes"/>
      <point x="616" y="232" type="line"/>
      <point x="747" y="232" type="line"/>
      <point x="747" y="0" type="line"/>
      <point x="26" y="0" type="line"/>
      <point x="26" y="76" type="line"/>
      <point x="38" y="76" type="line" smooth="yes"/>
      <point x="68" y="76"/>
      <point x="89" y="83"/>
      <point x="89" y="112" type="curve" smooth="yes"/>
      <point x="89" y="598" type="line" smooth="yes"/>
      <point x="89" y="627"/>
      <point x="68" y="634"/>
      <point x="38" y="634" type="curve" smooth="yes"/>
      <point x="26" y="634" type="line"/>
      <point x="26" y="710" type="line"/>
    </contour>
    <component base="periodcentered" xOffset="439.88000000000005" yOffset="63.64"/>
  </outline>
</glyph>
<glyph name="lslash" format="2">
  <advance width="467"/>
  <unicode hex="0142"/>
  <outline>
    <contour>
      <point x="19" y="190" type="line"/>
      <point x="453" y="429" type="line"/>
      <point x="453" y="526" type="line"/>
      <point x="19" y="287" type="line"/>
    </contour>
    <component base="l" xOffset="63.260000000000005"/>
  </outline>
</glyph>
<glyph name="tbar" format="2">
  <advance width="509"/>
  <unicode hex="0167"/>
  <outline>
    <contour>
      <point x="491" y="331" type="line"/>
      <point x="0" y="331" type="line"/>
      <point x="0" y="244" type="line"/>
      <point x="491" y="244" type="line"/>
    </contour>
    <component base="t" xOffset="38.88000000000001"/>
  </outline>
</glyph>
<glyph name="circumflex" format="2">
  <advance width="588"/>
  <unicode hex="02C6"/>
  <anchor x="293" y="529.0" name="_top"/>
  <outline>
    <contour>
      <point x="400" y="730" type="line"/>
      <point x="540" y="581" type="line"/>
      <point x="540" y="556" type="line"/>
      <point x="422" y="556" type="line"/>
      <point x="206" y="663" type="line"/>
      <point x="378" y="663" type="line"/>
      <point x="159" y="556" type="line"/>
      <point x="48" y="556" type="line"/>
      <point x="48" y="581" type="line"/>
      <point x="190" y="730" type="line"/>
    </contour>
  </outline>
</glyph>
<glyph name="breve" format="2">
  <advance width="588"/>
  <unicode hex="02D8"/>
  <anchor x="295" y="517.0" name="_top"/>
  <outline>
    <contour>
      <point x="295" y="559" type="curve" smooth="yes"/>
      <point x="172.23333333333332" y="559.0"/>
      <point x="91" y="621"/>
      <point x="92" y="748" type="curve"/>
      <point x="217" y="748" type="line"/>
      <point x="223" y="699"/>
      <point x="250.906976744186" y="685.0"/>
      <point x="298" y="685" type="curve" smooth="yes"/>
      <point x="345.0238095238095" y="685.0"/>
      <point x="371" y="698"/>
      <point x="377" y="748" type="curve"/>
      <point x="496" y="748" type="line"/>
      <point x="498" y="621"/>
      <point x="414.8269230769231" y="559.0"/>
    </contour>
  </outline>
</glyph>
<glyph name="ring" format="2">
  <advance width="588"/>
  <unicode hex="02DA"/>
  <anchor x="294" y="526.0" name="_top"/>
  <outline>
    <contour>
      <point x="250" y="663" type="curve" smooth="yes"/>
      <point x="250" y="694"/>
      <point x="269" y="708"/>
      <point x="294" y="708" type="curve" smooth="yes"/>
      <point x="319" y="708"/>
      <point x="338" y="694"/>
      <point x="338" y="663" type="curve" smooth="yes"/>
      <point x="338" y="632"/>
      <point x="319" y="618"/>
      <point x="294" y="618" type="curve" smooth="yes"/>
      <point x="269" y="618"/>
      <point x="250" y="632"/>
    </contour>
    <contour>
      <point x="455" y="663" type="curve" smooth="yes"/>
      <point x="455.0" y="737.0"/>
      <point x="385" y="773.0"/>
      <point x="294" y="773" type="curve" smooth="yes"/>
      <point x="203" y="773.0"/>
      <point x="133.0" y="737.0"/>
      <point x="133" y="663" type="curve" smooth="yes"/>
      <point x="133.0" y="589.0"/>
      <point x="203" y="553.0"/>
      <point x="294" y="553" type="curve" smooth="yes"/>
      <point x="385" y="553.0"/>
      <point x="455.0" y="589.0"/>
    </contour>
  </outline>
</glyph>
<glyph name="tilde" format="2">
  <advance width="588"/>
  <unicode hex="02DC"/>
  <anchor x="293" y="516.0" name="_top"/>
  <outline>
    <contour>
      <point x="366" y="559" type="curve" smooth="yes"/>
      <point x="449.0" y="559.0"/>
      <point x="496" y="618"/>
      <point x="520" y="713" type="curve"/>
      <point x="415" y="741" type="line"/>
      <point x="403.3643045540018" y="709.001837523505"/>
      <point x="394.0" y="693.0"/>
      <point x="366" y="693" type="curve" smooth="yes"/>
      <point x="321.0" y="693.0"/>
      <point x="278.0" y="737.0"/>
      <point x="216" y="737" type="curve" smooth="yes"/>
      <point x="124.0" y="737.0"/>
      <point x="89" y="681"/>
      <point x="68" y="586" type="curve"/>
      <point x="174" y="557" type="line"/>
      <point x="181.7184209670737" y="588.838486489179"/>
      <point x="191.0" y="605.0"/>
      <point x="219" y="605" type="curve" smooth="yes"/>
      <point x="257.0" y="605.0"/>
      <point x="295.0" y="559.0"/>
    </contour>
  </outline>
</glyph>
<glyph name="naira" format="2">
  <advance width="664"/>
  <unicode hex="20A6"/>
  <outline>
    <contour>
      <point x="125" y="693" type="line"/>
      <point x="319" y="0" type="line"/>
      <point x="601" y="0" type="line"/>
      <point x="601" y="597" type="line" smooth="yes"/>
      <point x="601" y="626"/>
      <point x="618" y="634"/>
      <point x="642" y="634" type="curve" smooth="yes"/>
      <point x="651" y="634" type="line"/>
      <point x="651" y="710" type="line"/>
      <point x="449" y="710" type="line"/>
      <point x="449" y="634" type="line"/>
      <point x="458" y="634" type="line"/>
      <point x="475" y="634.0"/>
      <point x="492" y="626"/>
      <point x="492" y="619" type="curve" smooth="yes"/>
      <point x="492" y="58" type="line"/>
      <point x="548" y="21" type="line"/>
      <point x="363" y="710" type="line"/>
      <point x="13" y="710" type="line"/>
      <point x="13" y="634" type="line"/>
      <point x="22" y="634" type="line" smooth="yes"/>
      <point x="46" y="634"/>
      <point x="63" y="627.0"/>
      <point x="63" y="598" type="curve" smooth="yes"/>
      <point x="63" y="117" type="line" smooth="yes"/>
      <point x="63" y="88.0"/>
      <point x="46" y="76"/>
      <point x="22" y="76" type="curve" smooth="yes"/>
      <point x="13" y="76" type="line"/>
      <point x="13" y="0" type="line"/>
      <point x="218" y="0" type="line"/>
      <point x="218" y="76" type="line"/>
      <point x="210" y="76" type="line" smooth="yes"/>
      <point x="191" y="76"/>
      <point x="172" y="84.0"/>
      <point x="172" y="91" type="curve" smooth="yes"/>
      <point x="172" y="674" type="line"/>
    </contour>
    <contour>
      <point x="107" y="505" type="line"/>
      <point x="13" y="505" type="line"/>
      <point x="13" y="429" type="line"/>
      <point x="107" y="429" type="line"/>
    </contour>
    <contour>
      <point x="291" y="438" type="line"/>
      <point x="535" y="438" type="line"/>
      <point x="552" y="429" type="line"/>
      <point x="651" y="429" type="line"/>
      <point x="651" y="505" type="line"/>
      <point x="296" y="505" type="line"/>
    </contour>
    <contour>
      <point x="555" y="253" type="line"/>
      <point x="651" y="253" type="line"/>
      <point x="651" y="328" type="line"/>
      <point x="555" y="328" type="line"/>
    </contour>
    <contour>
      <point x="398" y="320" type="line"/>
      <point x="132" y="320" type="line"/>
      <point x="121" y="328" type="line"/>
      <point x="13" y="328" type="line"/>
      <point x="13" y="253" type="line"/>
      <point x="398" y="253" type="line"/>
    </contour>
  </outline>
</glyph>
<glyph name="won" format="2">
  <advance width="665"/>
  <unicode hex="20A9"/>
  <outline>
    <contour>
      <point x="16" y="710" type="line"/>
      <point x="16" y="634" type="line"/>
      <point x="24" y="634" type="line" smooth="yes"/>
      <point x="36.0" y="634"/>
      <point x="46.72944806227105" y="627.981667824634"/>
      <point x="48" y="604" type="curve" smooth="yes"/>
      <point x="80" y="0" type="line"/>
      <point x="297" y="0" type="line"/>
      <point x="343" y="683" type="line"/>
      <point x="328" y="689" type="line"/>
      <point x="359" y="0" type="line"/>
      <point x="574" y="0" type="line"/>
      <point x="611" y="591" type="line" smooth="yes"/>
      <point x="613.0686263275776" y="624.0421124215768"/>
      <point x="625" y="634"/>
      <point x="642" y="634" type="curve" smooth="yes"/>
      <point x="649" y="634" type="line"/>
      <point x="649" y="710" type="line"/>
      <point x="500" y="710" type="line"/>
      <point x="500" y="634" type="line"/>
      <point x="505" y="634" type="line" smooth="yes"/>
      <point x="514.24" y="634"/>
      <point x="526.0" y="630.0"/>
      <point x="526" y="623" type="curve"/>
      <point x="490" y="20" type="line"/>
      <point x="501" y="25" type="line"/>
      <point x="461" y="710" type="line"/>
      <point x="261" y="710" type="line"/>
      <point x="214" y="12" type="line"/>
      <point x="225" y="15" type="line"/>
      <point x="195" y="624" type="line"/>
      <point x="195.0" y="631.0"/>
      <point x="204.8181818181818" y="634"/>
      <point x="213" y="634" type="curve" smooth="yes"/>
      <point x="221" y="634" type="line"/>
      <point x="221" y="710" type="line"/>
    </contour>
    <contour>
      <point x="10" y="473" type="line"/>
      <point x="10" y="392" type="line"/>
      <point x="173" y="392" type="line"/>
      <point x="195" y="415" type="line"/>
      <point x="270" y="415" type="line"/>
      <point x="277" y="473" type="line"/>
    </contour>
    <contour>
      <point x="421" y="415" type="line"/>
      <point x="536" y="415" type="line"/>
      <point x="566" y="392" type="line"/>
      <point x="655" y="392" type="line"/>
      <point x="655" y="473" type="line"/>
      <point x="414" y="473" type="line"/>
    </contour>
    <contour>
      <point x="269" y="246" type="line"/>
      <point x="415" y="246" type="line"/>
      <point x="421" y="304" type="line"/>
      <point x="288" y="304" type="line"/>
    </contour>
    <contour>
      <point x="154" y="317" type="line"/>
      <point x="10" y="317" type="line"/>
      <point x="10" y="236" type="line"/>
      <point x="159" y="236" type="line"/>
    </contour>
    <contour>
      <point x="543" y="236" type="line"/>
      <point x="655" y="236" type="line"/>
      <point x="655" y="317" type="line"/>
      <point x="566" y="317" type="line"/>
    </contour>
  </outline>
</glyph>
<glyph name="cedi" format="2">
  <advance width="664"/>
  <unicode hex="20B5"/>
  <outline>
    <contour>
      <point x="400" y="717" type="curve" smooth="yes"/>
      <point x="183" y="717"/>
      <point x="15" y="574"/>
      <point x="15" y="355" type="curve" smooth="yes"/>
      <point x="15.0" y="138.0"/>
      <point x="168" y="-7.0"/>
      <point x="388" y="-7" type="curve" smooth="yes"/>
      <point x="550" y="-7"/>
      <point x="628" y="87"/>
      <point x="664" y="227" type="curve"/>
      <point x="564" y="261" type="line"/>
      <point x="540" y="156"/>
      <point x="488" y="87"/>
      <point x="418" y="87" type="curve" smooth="yes"/>
      <point x="298" y="87"/>
      <point x="258" y="163"/>
      <point x="258" y="355" type="curve" smooth="yes"/>
      <point x="258" y="529"/>
      <point x="289" y="632"/>
      <point x="420" y="632" type="curve" smooth="yes"/>
      <point x="485" y="632"/>
      <point x="522" y="610"/>
      <point x="548" y="577" type="curve"/>
      <point x="585" y="587"/>
      <point x="605" y="632"/>
      <point x="503" y="626" type="curve"/>
      <point x="503" y="515" type="line"/>
      <point x="661" y="515" type="line"/>
      <point x="661" y="664" type="line"/>
      <point x="637" y="679"/>
      <point x="549" y="717"/>
    </contour>
    <contour>
      <point x="329" y="790" type="line"/>
      <point x="329" y="672" type="line"/>
      <point x="349" y="663" type="line"/>
      <point x="349" y="49" type="line"/>
      <point x="329" y="35" type="line"/>
      <point x="329" y="-120" type="line"/>
      <point x="460" y="-120" type="line"/>
      <point x="460" y="34" type="line"/>
      <point x="441" y="49" type="line"/>
      <point x="441" y="668" type="line"/>
      <point x="460" y="679" type="line"/>
      <point x="460" y="790" type="line"/>
    </contour>
  </outline>
</glyph>
<glyph name="ruble" format="2">
  <advance width="664"/>
  <unicode hex="20BD"/>
  <outline>
    <contour>
      <point x="15" y="379" type="line"/>
      <point x="337" y="379" type="line" smooth="yes"/>
      <point x="387.0" y="379.0"/>
      <point x="409.0" y="422.0"/>
      <point x="409" y="508" type="curve" smooth="yes"/>
      <point x="409.0" y="589.0"/>
      <point x="387.0" y="623.0"/>
      <point x="343" y="623" type="curve" smooth="yes"/>
      <point x="326" y="623" type="line"/>
      <point x="326" y="86" type="line" smooth="yes"/>
      <point x="326" y="79"/>
      <point x="352" y="76"/>
      <point x="373" y="76" type="curve" smooth="yes"/>
      <point x="384" y="76" type="line"/>
      <point x="384" y="0" type="line"/>
      <point x="15" y="0" type="line"/>
      <point x="15" y="76" type="line"/>
      <point x="22" y="76" type="line" smooth="yes"/>
      <point x="44" y="76"/>
      <point x="61" y="83"/>
      <point x="61" y="112" type="curve" smooth="yes"/>
      <point x="61" y="598" type="line" smooth="yes"/>
      <point x="61" y="627"/>
      <point x="44" y="634"/>
      <point x="22" y="634" type="curve" smooth="yes"/>
      <point x="15" y="634" type="line"/>
      <point x="15" y="710" type="line"/>
      <point x="356" y="710" type="line" smooth="yes"/>
      <point x="563.0" y="710.0"/>
      <point x="665.0" y="639.0"/>
      <point x="665" y="512" type="curve" smooth="yes"/>
      <point x="665.0" y="380.0"/>
      <point x="555.0" y="301.0"/>
      <point x="354" y="301" type="curve" smooth="yes"/>
      <point x="15" y="301" type="line"/>
    </contour>
    <contour>
      <point x="458" y="165" type="line"/>
      <point x="15" y="165" type="line"/>
      <point x="15" y="242" type="line"/>
      <point x="458" y="242" type="line"/>
    </contour>
  </outline>
</glyph>
<glyph name="acute.uc" format="2">
  <advance width="588"/>
  <anchor x="299" y="694.0" name="_top"/>
  <outline>
    <contour>
      <point x="312" y="866" type="curve" smooth="yes"/>
      <point x="258" y="788" type="line"/>
      <point x="258" y="758" type="line"/>
      <point x="340" y="758" type="line"/>
      <point x="422" y="785" type="line" smooth="yes"/>
      <point x="492" y="808"/>
      <point x="527.0" y="837"/>
      <point x="527" y="882" type="curve" smooth="yes"/>
      <point x="527.0" y="925"/>
      <point x="495" y="954.0"/>
      <point x="444" y="954" type="curve" smooth="yes"/>
      <point x="384.0" y="954.0"/>
      <point x="350" y="921"/>
    </contour>
  </outline>
</glyph>
<glyph name="acute.ucpl" format="2">
  <advance width="595"/>
  <anchor x="271" y="694.0" name="_top"/>
  <outline>
    <contour>
      <point x="237" y="874" type="curve" smooth="yes"/>
      <point x="231" y="784" type="line"/>
      <point x="231" y="758" type="line"/>
      <point x="325" y="758" type="line"/>
      <point x="374" y="808" type="line" smooth="yes"/>
      <point x="426" y="861"/>
      <point x="440" y="892"/>
      <point x="440" y="923" type="curve" smooth="yes"/>
      <point x="440.0" y="959.0"/>
      <point x="413" y="994"/>
      <point x="348" y="994" type="curve" smooth="yes"/>
      <point x="271" y="994"/>
      <point x="242" y="951"/>
    </contour>
  </outline>
</glyph>
<glyph name="at.uc" format="2">
  <advance width="1063"/>
  <outline>
    <contour>
      <point x="548" y="27" type="curve" smooth="yes"/>
      <point x="307.0" y="27.0"/>
      <point x="132.0" y="136.67499999999998"/>
      <point x="132" y="314" type="curve" smooth="yes"/>
      <point x="132.0" y="505.94082840236683"/>
      <point x="311.0" y="645.0"/>
      <point x="571" y="645" type="curve" smooth="yes"/>
      <point x="794.0" y="645.0"/>
      <point x="932.0" y="539.0"/>
      <point x="932" y="400" type="curve" smooth="yes"/>
      <point x="932.0" y="274.0"/>
      <point x="861.0" y="205.0"/>
      <point x="811" y="205" type="curve" smooth="yes"/>
      <point x="783" y="205"/>
      <point x="778" y="219"/>
      <point x="784" y="255" type="curve" smooth="yes"/>
      <point x="835" y="540" type="line"/>
      <point x="655" y="540" type="line"/>
      <point x="611" y="459" type="line"/>
      <point x="595" y="453" type="line"/>
      <point x="555" y="219" type="line"/>
      <point x="561" y="214"/>
      <point x="579" y="216"/>
      <point x="580" y="219" type="curve"/>
      <point x="599" y="164"/>
      <point x="657" y="123"/>
      <point x="768" y="123" type="curve" smooth="yes"/>
      <point x="930.0" y="123.0"/>
      <point x="1038.0" y="223.0"/>
      <point x="1038" y="403" type="curve" smooth="yes"/>
      <point x="1038.0" y="586.0"/>
      <point x="856.0" y="733.0"/>
      <point x="569" y="733" type="curve" smooth="yes"/>
      <point x="251.0" y="733.0"/>
      <point x="25.0" y="561.8591549295775"/>
      <point x="25" y="314" type="curve" smooth="yes"/>
      <point x="25.0" y="74.55405405405406"/>
      <point x="252.0" y="-63.0"/>
      <point x="550" y="-63" type="curve" smooth="yes"/>
      <point x="685" y="-63"/>
      <point x="813" y="-36"/>
      <point x="891" y="-3" type="curve"/>
      <point x="869" y="86" type="line"/>
      <point x="782" y="51"/>
      <point x="675" y="27.0"/>
    </contour>
    <contour>
      <point x="436" y="117" type="curve" smooth="yes"/>
      <point x="540" y="117"/>
      <point x="592" y="177"/>
      <point x="643" y="295" type="curve"/>
      <point x="609" y="345" type="line"/>
      <point x="570" y="247"/>
      <point x="538" y="200"/>
      <point x="506" y="200" type="curve" smooth="yes"/>
      <point x="478" y="200"/>
      <point x="466" y="224"/>
      <point x="466" y="283" type="curve" smooth="yes"/>
      <point x="466" y="362"/>
      <point x="496" y="467"/>
      <point x="551" y="467" type="curve" smooth="yes"/>
      <point x="583" y="467"/>
      <point x="602" y="439"/>
      <point x="624" y="356" type="curve"/>
      <point x="658" y="399" type="line"/>
      <point x="634" y="504"/>
      <point x="583" y="546"/>
      <point x="491" y="546" type="curve" smooth="yes"/>
      <point x="329" y="546"/>
      <point x="240" y="420"/>
      <point x="240" y="300" type="curve" smooth="yes"/>
      <point x="240" y="178"/>
      <point x="326" y="117"/>
    </contour>
  </outline>
</glyph>
<glyph name="heartsuitwhite" format="2">
  <advance width="1013"/>
  <outline>
    <contour>
      <point x="513" y="458.0" type="line"/>
      <point x="547.480575170868" y="539.1307651079246"/>
      <point x="618.0" y="641.0"/>
      <point x="719" y="641.0" type="curve" smooth="yes"/>
      <point x="801.3846153846154" y="641.0"/>
      <point x="845" y="594"/>
      <point x="845" y="528.0" type="curve" smooth="yes"/>
      <point x="845.0" y="451.0"/>
      <point x="799.2742647560814" y="396.928669620388"/>
      <point x="724" y="316.0" type="curve" smooth="yes"/>
      <point x="511" y="87.0" type="line"/>
      <point x="503" y="87.0" type="line"/>
      <point x="291" y="316.0" type="line" smooth="yes"/>
      <point x="216" y="398"/>
      <point x="168.0" y="449.0"/>
      <point x="168" y="528.0" type="curve" smooth="yes"/>
      <point x="168" y="594"/>
      <point x="213.5648854961832" y="641.0"/>
      <point x="295" y="641.0" type="curve" smooth="yes"/>
      <point x="395.0" y="641.0"/>
      <point x="465.50034887530387" y="539.1103358326582"/>
      <point x="502" y="458.0" type="curve"/>
    </contour>
    <contour>
      <point x="494" y="-10.0" type="line"/>
      <point x="520" y="-10.0" type="line"/>
      <point x="785" y="273.0" type="line" smooth="yes"/>
      <point x="879" y="374"/>
      <point x="931" y="437.0"/>
      <point x="931" y="535.0" type="curve" smooth="yes"/>
      <point x="931" y="632.0"/>
      <point x="858" y="710.0"/>
      <point x="728" y="710.0" type="curve" smooth="yes"/>
      <point x="625.0" y="710.0"/>
      <point x="549" y="658"/>
      <point x="507" y="571.0" type="curve"/>
      <point x="464" y="658"/>
      <point x="390.0" y="710.0"/>
      <point x="285" y="710.0" type="curve" smooth="yes"/>
      <point x="156" y="710.0"/>
      <point x="82" y="632.0"/>
      <point x="82" y="535.0" type="curve" smooth="yes"/>
      <point x="82" y="437.0"/>
      <point x="135" y="375.0"/>
      <point x="230" y="273.0" type="curve" smooth="yes"/>
    </contour>
  </outline>
</glyph>
<glyph name="hook.uc" format="2">
  <advance width="608"/>
  <anchor x="299" y="679.0" name="_top"/>
  <outline>
    <contour>
      <point x="129" y="858" type="line"/>
      <point x="134" y="914"/>
      <point x="185" y="961.0"/>
      <point x="312" y="961" type="curve" smooth="yes"/>
      <point x="426" y="961"/>
      <point x="490" y="930"/>
      <point x="490" y="873" type="curve" smooth="yes"/>
      <point x="490" y="813"/>
      <point x="417" y="786"/>
      <point x="297" y="783" type="curve"/>
      <point x="358" y="809" type="line"/>
      <point x="358" y="745" type="line"/>
      <point x="234" y="745" type="line"/>
      <point x="234" y="818" type="line"/>
      <point x="315" y="821"/>
      <point x="339" y="833"/>
      <point x="339" y="861" type="curve" smooth="yes"/>
      <point x="339" y="882"/>
      <point x="326" y="894"/>
      <point x="299" y="894" type="curve" smooth="yes"/>
      <point x="271" y="894"/>
      <point x="257" y="879"/>
      <point x="253" y="858" type="curve"/>
    </contour>
  </outline>
</glyph>
<glyph name="hungarumlaut.uc" format="2">
  <advance width="588"/>
  <anchor x="311" y="694.0" name="_top"/>
  <outline>
    <contour>
      <point x="130" y="843" type="curve" smooth="yes"/>
      <point x="118" y="768" type="line"/>
      <point x="118" y="741" type="line"/>
      <point x="208" y="741" type="line"/>
      <point x="250" y="787" type="line" smooth="yes"/>
      <point x="300" y="842"/>
      <point x="318.0" y="861.0"/>
      <point x="318.0" y="898" type="curve" smooth="yes"/>
      <point x="318.0" y="931.0"/>
      <point x="297" y="961"/>
      <point x="240" y="961" type="curve" smooth="yes"/>
      <point x="168" y="961"/>
      <point x="142" y="915"/>
    </contour>
    <contour>
      <point x="373" y="843" type="curve" smooth="yes"/>
      <point x="361" y="768" type="line"/>
      <point x="361" y="741" type="line"/>
      <point x="451" y="741" type="line"/>
      <point x="493" y="787" type="line" smooth="yes"/>
      <point x="543" y="842"/>
      <point x="561.0" y="861.0"/>
      <point x="561.0" y="898" type="curve" smooth="yes"/>
      <point x="561.0" y="931.0"/>
      <point x="540" y="961"/>
      <point x="483" y="961" type="curve" smooth="yes"/>
      <point x="411" y="961"/>
      <point x="385" y="915"/>
    </contour>
  </outline>
</glyph>
<glyph name="rupeeIndian" format="2">
  <advance width="664"/>
  <outline>
    <contour>
      <point x="53" y="519" type="line"/>
      <point x="53" y="428" type="line"/>
      <point x="641" y="428" type="line"/>
      <point x="641" y="519" type="line"/>
    </contour>
    <contour>
      <point x="131" y="260" type="line"/>
      <point x="174" y="260" type="line" smooth="yes"/>
      <point x="404" y="260"/>
      <point x="542" y="344"/>
      <point x="542" y="458" type="curve" smooth="yes"/>
      <point x="542" y="568"/>
      <point x="469" y="635"/>
      <point x="245" y="645" type="curve"/>
      <point x="224" y="682"/>
      <point x="100" y="690"/>
      <point x="214" y="621" type="curve"/>
      <point x="641" y="621" type="line"/>
      <point x="641" y="710" type="line"/>
      <point x="53" y="710" type="line"/>
      <point x="53" y="617" type="line"/>
      <point x="130" y="617" type="line" smooth="yes"/>
      <point x="252.94767441860463" y="617"/>
      <point x="289.0" y="563.0"/>
      <point x="289" y="473" type="curve" smooth="yes"/>
      <point x="289.0" y="385.0"/>
      <point x="255.54347826086956" y="329"/>
      <point x="118" y="329" type="curve" smooth="yes"/>
      <point x="53" y="329" type="line"/>
      <point x="53" y="252" type="line"/>
      <point x="308" y="0" type="line"/>
      <point x="622" y="0" type="line"/>
      <point x="622" y="74" type="line"/>
      <point x="608" y="74" type="line" smooth="yes"/>
      <point x="579" y="74"/>
      <point x="561" y="82"/>
      <point x="540" y="102" type="curve" smooth="yes"/>
      <point x="323" y="303" type="line"/>
    </contour>
  </outline>
</glyph>
<glyph name="six.lintab" format="2">
  <advance width="664"/>
  <outline>
    <contour>
      <point x="579" y="655" type="line"/>
      <point x="404.7234400239049" y="619.3525218230715"/>
      <point x="288.0" y="494.0"/>
      <point x="288" y="287" type="curve" smooth="yes"/>
      <point x="288.0" y="114.0"/>
      <point x="304.96153846153845" y="75.0"/>
      <point x="337" y="75" type="curve" smooth="yes"/>
      <point x="366.8181818181818" y="75.0"/>
      <point x="378.0" y="116.0"/>
      <point x="378" y="229" type="curve" smooth="yes"/>
      <point x="378.0" y="313.0"/>
      <point x="372.3529411764706" y="368.0"/>
      <point x="330" y="368" type="curve" smooth="yes"/>
      <point x="296.22093023255815" y="368.0"/>
      <point x="275.76322525666944" y="333.5754383912693"/>
      <point x="247" y="282" type="curve"/>
      <point x="242" y="353" type="line"/>
      <point x="260.95379970389325" y="399.8857150569991"/>
      <point x="306.84883720930236" y="453.0"/>
      <point x="411" y="453" type="curve" smooth="yes"/>
      <point x="551.2175732217573" y="453.0"/>
      <point x="647.0" y="380.0"/>
      <point x="647" y="246" type="curve" smooth="yes"/>
      <point x="647.0" y="86.0"/>
      <point x="527.1901639344262" y="-10.0"/>
      <point x="345" y="-10" type="curve" smooth="yes"/>
      <point x="149.81846153846155" y="-10.0"/>
      <point x="23.0" y="84.00000000000003"/>
      <point x="23" y="295" type="curve" smooth="yes"/>
      <point x="23.0" y="513.0"/>
      <point x="221.86984024220823" y="702.2077600269121"/>
      <point x="562" y="740" type="curve"/>
    </contour>
  </outline>
</glyph>
